<svg width="25" height="25" viewBox="0 0 25 25" fill="none" xmlns="http://www.w3.org/2000/svg">
<path d="M12.1263 13.6928C12.6786 13.6928 13.1263 13.2451 13.1263 12.6928C13.1263 12.1405 12.6786 11.6928 12.1263 11.6928C11.5741 11.6928 11.1263 12.1405 11.1263 12.6928C11.1263 13.2451 11.5741 13.6928 12.1263 13.6928Z" stroke="white" stroke-width="2" stroke-linecap="round" stroke-linejoin="round"/>
<path d="M12.1263 6.69281C12.6786 6.69281 13.1263 6.24509 13.1263 5.69281C13.1263 5.14053 12.6786 4.69281 12.1263 4.69281C11.5741 4.69281 11.1263 5.14053 11.1263 5.69281C11.1263 6.24509 11.5741 6.69281 12.1263 6.69281Z" stroke="white" stroke-width="2" stroke-linecap="round" stroke-linejoin="round"/>
<path d="M12.1263 20.6928C12.6786 20.6928 13.1263 20.2451 13.1263 19.6928C13.1263 19.1405 12.6786 18.6928 12.1263 18.6928C11.5741 18.6928 11.1263 19.1405 11.1263 19.6928C11.1263 20.2451 11.5741 20.6928 12.1263 20.6928Z" stroke="white" stroke-width="2" stroke-linecap="round" stroke-linejoin="round"/>
</svg>
