<svg width="28" height="28" viewBox="0 0 28 28" fill="none" xmlns="http://www.w3.org/2000/svg">
<path d="M19.6525 5.49807C19.5481 5.49811 19.446 5.46719 19.3592 5.40922C19.2724 5.35125 19.2047 5.26882 19.1647 5.17238C19.1247 5.07593 19.1142 4.96979 19.1346 4.86738C19.1549 4.76498 19.2052 4.6709 19.279 4.59706C19.3528 4.52322 19.4468 4.47293 19.5492 4.45254C19.6516 4.43216 19.7578 4.4426 19.8542 4.48254C19.9507 4.52249 20.0332 4.59014 20.0912 4.67695C20.1492 4.76376 20.1801 4.86582 20.1801 4.97023C20.18 5.11015 20.1244 5.24431 20.0255 5.34326C19.9266 5.44222 19.7924 5.4979 19.6525 5.49807Z" fill="#FD852B"/>
<path d="M19.6525 7.46792C19.5481 7.46796 19.446 7.43704 19.3592 7.37907C19.2724 7.32109 19.2047 7.23867 19.1647 7.14222C19.1247 7.04578 19.1142 6.93964 19.1346 6.83723C19.1549 6.73483 19.2052 6.64075 19.279 6.56691C19.3528 6.49307 19.4468 6.44277 19.5492 6.42239C19.6516 6.40201 19.7578 6.41245 19.8542 6.45239C19.9507 6.49234 20.0332 6.55999 20.0912 6.6468C20.1492 6.73361 20.1801 6.83567 20.1801 6.94008C20.18 7.07999 20.1244 7.21415 20.0255 7.31311C19.9266 7.41207 19.7924 7.46775 19.6525 7.46792Z" fill="#FD852B"/>
<path d="M18.6675 6.48287C18.5631 6.48287 18.461 6.45192 18.3742 6.39391C18.2874 6.33591 18.2198 6.25348 18.1798 6.15703C18.1399 6.06058 18.1294 5.95444 18.1498 5.85205C18.1702 5.74966 18.2204 5.65561 18.2943 5.58179C18.3681 5.50797 18.4621 5.45769 18.5645 5.43733C18.6669 5.41696 18.773 5.42741 18.8695 5.46737C18.9659 5.50732 19.0484 5.57497 19.1064 5.66177C19.1644 5.74858 19.1953 5.85063 19.1953 5.95503C19.1952 6.09499 19.1396 6.22918 19.0406 6.32814C18.9416 6.42711 18.8074 6.48276 18.6675 6.48287Z" fill="#FD852B"/>
<path d="M20.6373 6.48287C20.5329 6.48292 20.4308 6.452 20.344 6.39402C20.2572 6.33605 20.1895 6.25362 20.1495 6.15718C20.1095 6.06073 20.099 5.95459 20.1194 5.85219C20.1397 5.74978 20.19 5.65571 20.2638 5.58186C20.3376 5.50802 20.4316 5.45773 20.534 5.43734C20.6364 5.41696 20.7426 5.4274 20.839 5.46734C20.9355 5.50729 21.018 5.57494 21.076 5.66175C21.134 5.74856 21.1649 5.85062 21.1649 5.95503C21.1648 6.09495 21.1092 6.22911 21.0103 6.32807C20.9114 6.42702 20.7772 6.4827 20.6373 6.48287Z" fill="#FD852B"/>
<path d="M4.81251 22.5619C4.70811 22.5619 4.60606 22.5309 4.51926 22.4729C4.43245 22.4149 4.3648 22.3325 4.32485 22.236C4.2849 22.1396 4.27444 22.0334 4.29481 21.931C4.31518 21.8286 4.36545 21.7346 4.43927 21.6608C4.51309 21.5869 4.60714 21.5367 4.70953 21.5163C4.81193 21.4959 4.91806 21.5064 5.01451 21.5463C5.11096 21.5863 5.1934 21.6539 5.2514 21.7408C5.3094 21.8276 5.34036 21.9296 5.34036 22.034C5.34018 22.1739 5.28451 22.3081 5.18556 22.4071C5.08661 22.506 4.95245 22.5617 4.81251 22.5619Z" fill="#FD852B"/>
<path d="M4.81251 24.5317C4.70811 24.5317 4.60606 24.5007 4.51926 24.4427C4.43245 24.3847 4.3648 24.3023 4.32485 24.2059C4.2849 24.1094 4.27444 24.0033 4.29481 23.9009C4.31518 23.7985 4.36545 23.7044 4.43927 23.6306C4.51309 23.5568 4.60714 23.5065 4.70953 23.4862C4.81193 23.4658 4.91806 23.4762 5.01451 23.5162C5.11096 23.5561 5.1934 23.6238 5.2514 23.7106C5.3094 23.7974 5.34036 23.8995 5.34036 24.0039C5.34018 24.1438 5.28451 24.278 5.18556 24.3769C5.08661 24.4759 4.95245 24.5315 4.81251 24.5317Z" fill="#FD852B"/>
<path d="M3.82814 23.5467C3.72374 23.5467 3.62169 23.5158 3.53488 23.4578C3.44808 23.3998 3.38042 23.3173 3.34047 23.2209C3.30052 23.1244 3.29007 23.0183 3.31044 22.9159C3.3308 22.8135 3.38107 22.7194 3.4549 22.6456C3.52872 22.5718 3.62277 22.5215 3.72516 22.5012C3.82755 22.4808 3.93368 22.4913 4.03013 22.5312C4.12658 22.5712 4.20902 22.6388 4.26702 22.7256C4.32502 22.8124 4.35598 22.9145 4.35598 23.0189C4.35581 23.1588 4.30014 23.293 4.20119 23.3919C4.10223 23.4909 3.96808 23.5465 3.82814 23.5467Z" fill="#FD852B"/>
<path d="M5.79689 23.5467C5.69249 23.5467 5.59044 23.5158 5.50363 23.4578C5.41683 23.3998 5.34917 23.3173 5.30922 23.2209C5.26927 23.1244 5.25882 23.0183 5.27919 22.9159C5.29955 22.8135 5.34982 22.7194 5.42364 22.6456C5.49747 22.5718 5.59152 22.5215 5.69391 22.5012C5.7963 22.4808 5.90243 22.4913 5.99888 22.5312C6.09533 22.5712 6.17777 22.6388 6.23577 22.7256C6.29377 22.8124 6.32473 22.9145 6.32473 23.0189C6.32456 23.1588 6.26889 23.293 6.16994 23.3919C6.07098 23.4909 5.93683 23.5465 5.79689 23.5467Z" fill="#FD852B"/>
<path d="M8.98013 3.09168L7.9682 4.10358L8.9801 5.11551L9.99203 4.10361L8.98013 3.09168Z" fill="#FD748C"/>
<path d="M22.8005 22.8846L21.7886 23.8965L22.8005 24.9085L23.8125 23.8965L22.8005 22.8846Z" fill="#FD748C"/>
<path d="M14 18.256C18.7506 18.256 22.6017 16.6533 22.6017 14.6762C22.6017 12.6991 18.7506 11.0963 14 11.0963C9.24942 11.0963 5.39832 12.6991 5.39832 14.6762C5.39832 16.6533 9.24942 18.256 14 18.256Z" fill="#FC6928"/>
<path d="M24.2122 9.66592L22.3176 18.256L21.9592 19.8844C21.9592 20.7202 18.3954 21.396 14 21.396C9.60468 21.396 6.04081 20.72 6.04081 19.8844L5.68272 18.2556L3.7879 9.66592L10.3955 13.7211L14 8.01239L17.6046 13.7218L24.2122 9.66592Z" fill="#F9D12F"/>
<path d="M14 14.2426L12.9579 15.2847L14 16.3267L15.042 15.2847L14 14.2426Z" fill="#2EC3FC"/>
<path d="M22.3175 18.256L21.9592 19.8844C21.9592 20.7202 18.3953 21.3959 14 21.3959C9.60465 21.3959 6.04077 20.72 6.04077 19.8844L5.68268 18.2556C7.22333 18.8328 10.3707 19.2248 14 19.2248C17.6293 19.2248 20.7764 18.8328 22.3175 18.256Z" fill="#FD852B"/>
<path d="M21.0512 11.6058L18.8376 21.0851C20.7349 20.809 21.9592 20.3744 21.9592 19.8848L22.3173 18.256L24.2119 9.66589L21.0512 11.6058Z" fill="#F8B62B"/>
<path d="M24.2121 11.4557C25.1564 11.4557 25.9219 10.6902 25.9219 9.74594C25.9219 8.80168 25.1564 8.03619 24.2121 8.03619C23.2679 8.03619 22.5024 8.80168 22.5024 9.74594C22.5024 10.6902 23.2679 11.4557 24.2121 11.4557Z" fill="#FD852B"/>
<path d="M18.8376 21.0851C18.9518 21.0685 19.0635 21.0513 19.1726 21.0335L19.201 21.0289C19.3031 21.0122 19.4022 20.9951 19.4983 20.9775L19.5287 20.972C19.63 20.9535 19.7288 20.9344 19.8249 20.9149L19.8316 20.9136C20.1311 20.8523 20.4039 20.7863 20.6474 20.7167L20.6817 20.7067C20.7475 20.6874 20.811 20.6679 20.8722 20.648L20.9191 20.6325C20.9749 20.6138 21.0286 20.595 21.0803 20.5761L21.1269 20.5588C21.1787 20.5391 21.2279 20.519 21.2752 20.4988C21.2866 20.494 21.2988 20.4892 21.3097 20.4842C21.4137 20.4394 21.5144 20.3874 21.6112 20.3287C21.6204 20.323 21.6282 20.3171 21.6372 20.3114C21.6685 20.291 21.6982 20.2707 21.7247 20.2499C21.7363 20.2409 21.7466 20.232 21.7573 20.223C21.7792 20.2051 21.7989 20.1871 21.8168 20.169C21.8269 20.1589 21.8361 20.1488 21.845 20.1388C21.86 20.1218 21.874 20.104 21.8868 20.0854C21.8938 20.0753 21.9012 20.0651 21.9071 20.055C21.9177 20.0366 21.9267 20.0173 21.9341 19.9975C21.9376 19.9885 21.9421 19.9795 21.9448 19.9706C21.9532 19.943 21.9577 19.9143 21.9581 19.8855L22.3162 18.2567C21.3515 18.5767 20.3558 18.7942 19.3456 18.9055L18.8376 21.0851Z" fill="#FC6928"/>
<path d="M22.7382 10.6094C22.9241 10.9293 23.209 11.1801 23.5499 11.324C23.8908 11.4679 24.2693 11.497 24.6282 11.4071C24.9871 11.3171 25.3071 11.1129 25.5398 10.8252C25.7726 10.5376 25.9055 10.182 25.9186 9.81224C25.7326 9.49231 25.4477 9.24149 25.1068 9.0976C24.7659 8.95371 24.3875 8.92455 24.0285 9.01451C23.6696 9.10447 23.3496 9.30868 23.1169 9.59635C22.8841 9.88402 22.7512 10.2396 22.7382 10.6094Z" fill="#FC6928"/>
<path d="M17.6046 13.7211L15.7098 14.875L14 8.03644L17.6046 13.7211Z" fill="#F8B62B"/>
<path d="M14 9.74616C14.9442 9.74616 15.7097 8.98068 15.7097 8.03641C15.7097 7.09214 14.9442 6.32666 14 6.32666C13.0557 6.32666 12.2902 7.09214 12.2902 8.03641C12.2902 8.98068 13.0557 9.74616 14 9.74616Z" fill="#FC6928"/>
<path d="M13.5625 6.38531C13.1975 6.48116 12.8746 6.6952 12.6441 6.994C12.4136 7.2928 12.2886 7.65953 12.2886 8.03688C12.2886 8.41423 12.4136 8.78095 12.6441 9.07975C12.8746 9.37855 13.1975 9.59259 13.5625 9.68844C13.9275 9.59259 14.2504 9.37855 14.4809 9.07975C14.7113 8.78095 14.8363 8.41423 14.8363 8.03688C14.8363 7.65953 14.7113 7.2928 14.4809 6.994C14.2504 6.6952 13.9275 6.48116 13.5625 6.38531Z" fill="#FD852B"/>
<path d="M10.3955 13.7211L9.36515 15.2847L3.7879 9.66589L10.3955 13.7211Z" fill="#F8B62B"/>
<path d="M3.78787 11.4557C4.73214 11.4557 5.49762 10.6902 5.49762 9.74594C5.49762 8.80168 4.73214 8.03619 3.78787 8.03619C2.84361 8.03619 2.07812 8.80168 2.07812 9.74594C2.07812 10.6902 2.84361 11.4557 3.78787 11.4557Z" fill="#FC6928"/>
<path d="M2.94522 8.25958C2.62313 8.44164 2.36888 8.72338 2.22074 9.06241C2.0726 9.40144 2.03858 9.77941 2.1238 10.1394C2.20902 10.4995 2.40887 10.8221 2.69328 11.0587C2.97768 11.2954 3.33126 11.4332 3.70078 11.4516C4.02287 11.2695 4.27712 10.9878 4.42527 10.6488C4.57341 10.3097 4.60743 9.93176 4.52221 9.57173C4.43698 9.21169 4.23713 8.88908 3.95273 8.65244C3.66832 8.41579 3.31475 8.27793 2.94522 8.25958Z" fill="#FD852B"/>
<path d="M14 14.2426V15.2847H15.0421L14 14.2426Z" fill="#1BA4FC"/>
<path d="M12.9579 15.2847H14V16.3266L12.9579 15.2847Z" fill="#1BA4FC"/>
</svg>
