<svg width="26" height="26" viewBox="0 0 26 26" fill="none" xmlns="http://www.w3.org/2000/svg">
<g clip-path="url(#clip0_158_118)">
<path d="M24.6632 4.94647C24.2673 4.78157 23.8313 4.73823 23.4107 4.82196C22.9902 4.90569 22.604 5.1127 22.3015 5.41664L19.5 8.21814L14.5318 3.24997C14.1255 2.84378 13.5745 2.6156 13 2.6156C12.4255 2.6156 11.8745 2.84378 11.4682 3.24997L6.5 8.21814L3.6985 5.41664C3.39549 5.11372 3.00947 4.90744 2.58924 4.82387C2.169 4.74031 1.73343 4.78322 1.33758 4.94717C0.941732 5.11112 0.603379 5.38876 0.365296 5.74498C0.127214 6.1012 9.1486e-05 6.52001 0 6.94847L0 18.4166C0.00172018 19.8527 0.572955 21.2295 1.5884 22.2449C2.60385 23.2604 3.98061 23.8316 5.41667 23.8333H20.5833C22.0194 23.8316 23.3961 23.2604 24.4116 22.2449C25.427 21.2295 25.9983 19.8527 26 18.4166V6.94847C26.0001 6.51998 25.8732 6.10108 25.6352 5.74473C25.3973 5.38838 25.059 5.11058 24.6632 4.94647ZM23.8333 18.4166C23.8333 19.2786 23.4909 20.1052 22.8814 20.7147C22.2719 21.3242 21.4453 21.6666 20.5833 21.6666H5.41667C4.55471 21.6666 3.72806 21.3242 3.11857 20.7147C2.50908 20.1052 2.16667 19.2786 2.16667 18.4166V6.94847L5.73408 10.5159C5.93724 10.719 6.21274 10.8331 6.5 10.8331C6.78726 10.8331 7.06276 10.719 7.26592 10.5159L13 4.7818L18.7341 10.5159C18.9372 10.719 19.2127 10.8331 19.5 10.8331C19.7873 10.8331 20.0628 10.719 20.2659 10.5159L23.8333 6.94847V18.4166Z" fill="white"/>
</g>
<defs>
<clipPath id="clip0_158_118">
<rect width="26" height="26" fill="white"/>
</clipPath>
</defs>
</svg>
