<svg width="26" height="26" viewBox="0 0 26 26" fill="none" xmlns="http://www.w3.org/2000/svg">
<path d="M19.5003 8.33805H14.4903C14.799 7.8231 14.9792 7.27747 14.9904 6.75277C15.006 6.03488 14.721 5.39283 14.1682 4.89486C12.9577 3.80502 12.8126 3.29152 13.4622 2.39633C13.5746 2.24122 13.6208 2.04785 13.5908 1.85869C13.5607 1.66952 13.4568 1.50001 13.3019 1.38738C13.1467 1.27509 12.9534 1.22891 12.7642 1.25897C12.5751 1.28902 12.4056 1.39286 12.2929 1.54772C10.7123 3.72666 12.394 5.24044 13.2022 5.96808C13.4441 6.18547 13.5536 6.42488 13.5471 6.72172C13.5359 7.22691 13.1766 7.85019 12.6262 8.33805H6.50034C3.11528 8.33805 0.36145 11.1453 0.36145 14.5885C0.36145 17.2095 1.22414 24.6989 5.05589 24.6989C7.16514 24.6989 10.1385 22.4217 11.34 19.894H14.6604C15.8686 22.4217 18.8435 24.7505 20.9444 24.7505C24.7762 24.7505 25.6389 17.2001 25.6392 14.5585C25.6392 11.1316 22.8854 8.33805 19.5003 8.33805ZM20.9444 23.3115C19.4473 23.3115 16.6855 21.1795 15.8051 18.9219C15.6968 18.6445 15.4299 18.4492 15.1323 18.4492H10.868C10.5701 18.4492 10.3032 18.6413 10.1949 18.919C9.32495 21.1495 6.56209 23.2595 5.05553 23.2595C2.96289 23.2595 1.80553 18.1335 1.80553 14.5943C1.80553 11.9929 3.95523 9.78249 6.49998 9.78249H19.5C22.0884 9.78249 24.1944 11.9315 24.1944 14.5607C24.1944 17.698 23.1082 23.3115 20.9444 23.3115Z" fill="white"/>
<path d="M12.4583 17.0047H12.0972C12.0014 17.0047 11.9096 17.0427 11.8419 17.1105C11.7741 17.1782 11.7361 17.27 11.7361 17.3658C11.7361 17.4616 11.7741 17.5534 11.8419 17.6212C11.9096 17.6889 12.0014 17.7269 12.0972 17.7269H12.4583C12.5541 17.7269 12.6459 17.6889 12.7137 17.6212C12.7814 17.5534 12.8194 17.4616 12.8194 17.3658C12.8194 17.27 12.7814 17.1782 12.7137 17.1105C12.6459 17.0427 12.5541 17.0047 12.4583 17.0047Z" fill="white"/>
<path d="M11.0139 17.0047H9.68285C9.53371 17.0047 9.39974 17.1069 9.34593 17.2459C8.67282 18.9861 6.12699 21.5858 5.09024 21.5858C4.89054 21.5858 4.72913 21.7439 4.72913 21.9433C4.72913 22.1429 4.89054 22.2986 5.09024 22.2986C6.57982 22.2986 9.11157 19.5325 9.92226 17.7269H11.0139C11.1097 17.7269 11.2015 17.6889 11.2692 17.6212C11.337 17.5534 11.375 17.4616 11.375 17.3658C11.375 17.27 11.337 17.1782 11.2692 17.1105C11.2015 17.0427 11.1097 17.0047 11.0139 17.0047Z" fill="white"/>
<path d="M6.0959 17.3907C6.0959 17.4865 6.13395 17.5783 6.20167 17.6461C6.26939 17.7138 6.36124 17.7518 6.45701 17.7518C6.55279 17.7518 6.64464 17.7138 6.71236 17.6461C6.78008 17.5783 6.81813 17.4865 6.81813 17.3907V15.1991H8.84721C8.94298 15.1991 9.03483 15.1611 9.10255 15.0934C9.17027 15.0257 9.20832 14.9338 9.20832 14.838C9.20832 14.7423 9.17027 14.6504 9.10255 14.5827C9.03483 14.515 8.94298 14.4769 8.84721 14.4769H6.81813V12.3352C6.81813 12.2394 6.78008 12.1475 6.71236 12.0798C6.64464 12.0121 6.55279 11.9741 6.45701 11.9741C6.36124 11.9741 6.26939 12.0121 6.20167 12.0798C6.13395 12.1475 6.0959 12.2394 6.0959 12.3352V14.4769H3.79165C3.69588 14.4769 3.60403 14.515 3.53631 14.5827C3.46859 14.6504 3.43054 14.7423 3.43054 14.838C3.43054 14.9338 3.46859 15.0257 3.53631 15.0934C3.60403 15.1611 3.69588 15.1991 3.79165 15.1991H6.0959V17.3907Z" fill="white"/>
<path d="M19.7496 14.8958C20.0803 14.8958 20.3909 14.7669 20.6253 14.5333C20.8589 14.3 20.9878 13.9887 20.9878 13.6579C20.9878 13.3272 20.8593 13.0166 20.6249 12.7826C20.158 12.315 19.3419 12.315 18.8749 12.7826C18.6409 13.0166 18.5124 13.3272 18.5124 13.6579C18.5124 13.9887 18.6409 14.2996 18.8742 14.5326C18.9888 14.648 19.1252 14.7396 19.2755 14.802C19.4257 14.8643 19.5869 14.8962 19.7496 14.8958ZM19.3859 13.2936C19.4335 13.2456 19.4903 13.2075 19.5528 13.1817C19.6153 13.1558 19.6823 13.1427 19.7499 13.143C19.8879 13.143 20.0171 13.1961 20.1146 13.2936C20.2125 13.3918 20.2659 13.5207 20.2659 13.6583C20.2659 13.7963 20.2129 13.9255 20.115 14.0234C19.9196 14.2188 19.5809 14.2188 19.3859 14.0234C19.3378 13.9756 19.2997 13.9187 19.2738 13.856C19.2479 13.7933 19.2347 13.7261 19.235 13.6583C19.235 13.5204 19.2881 13.3911 19.3859 13.2936Z" fill="white"/>
<path d="M22.6055 14.7633C22.1379 14.2957 21.3218 14.2957 20.8549 14.7633C20.6209 14.9966 20.4923 15.3072 20.4923 15.6379C20.4923 15.9687 20.6212 16.2796 20.8545 16.5125C20.9691 16.6281 21.1056 16.7197 21.2559 16.7821C21.4062 16.8444 21.5674 16.8763 21.7302 16.8758C22.0606 16.8758 22.3712 16.7476 22.6055 16.5133C22.8373 16.2811 22.9675 15.9664 22.9675 15.6383C22.9675 15.3102 22.8373 14.9955 22.6055 14.7633ZM22.0949 16.0023C21.8996 16.1969 21.5608 16.1969 21.3655 16.0023C21.268 15.9048 21.2145 15.7752 21.2145 15.6376C21.2145 15.5 21.268 15.3711 21.3655 15.2736C21.463 15.1761 21.5923 15.1226 21.7298 15.1226C21.8316 15.123 21.9309 15.1534 22.0155 15.2101C22.1 15.2667 22.1659 15.3471 22.2049 15.4411C22.2439 15.535 22.2542 15.6385 22.2347 15.7383C22.2151 15.8381 22.1665 15.93 22.0949 16.0023Z" fill="white"/>
<path d="M19.0085 15.6379C19.0089 15.4754 18.9769 15.3143 18.9146 15.1642C18.8522 15.0141 18.7607 14.8778 18.6452 14.7633C18.1783 14.2957 17.3622 14.2957 16.8953 14.7633C16.7799 14.8778 16.6884 15.0141 16.6262 15.1642C16.564 15.3144 16.5322 15.4754 16.5327 15.6379C16.5321 15.8006 16.5638 15.9617 16.626 16.1119C16.6882 16.2622 16.7796 16.3986 16.8949 16.5133C17.1286 16.7476 17.4395 16.8758 17.7703 16.8758C18.101 16.8758 18.4116 16.7476 18.6456 16.5133C18.7611 16.3987 18.8526 16.2623 18.9149 16.112C18.9772 15.9618 19.009 15.8006 19.0085 15.6379ZM18.1353 16.0023C17.94 16.1969 17.6013 16.1977 17.4055 16.0023C17.3077 15.9048 17.2549 15.7752 17.2549 15.6376C17.2549 15.5 17.3084 15.3711 17.4059 15.2736C17.5034 15.1761 17.6327 15.1226 17.7703 15.1226C17.838 15.1224 17.9051 15.1356 17.9677 15.1614C18.0303 15.1872 18.0872 15.2251 18.1352 15.273C18.1831 15.3208 18.2211 15.3776 18.2471 15.4402C18.273 15.5028 18.2863 15.5698 18.2863 15.6376C18.2863 15.7752 18.2325 15.9052 18.1353 16.0023Z" fill="white"/>
<path d="M18.8753 16.7429C18.6413 16.9762 18.5127 17.2868 18.5127 17.6176C18.5127 17.9483 18.6413 18.2592 18.8753 18.4929C19.1085 18.7269 19.4191 18.8554 19.7499 18.8554C20.0806 18.8554 20.3916 18.7272 20.6256 18.4929C20.7411 18.3784 20.8326 18.242 20.8949 18.0917C20.9571 17.9414 20.9888 17.7802 20.9881 17.6176C20.9881 17.2868 20.8588 16.9759 20.6252 16.7429C20.1579 16.2753 19.3422 16.2753 18.8753 16.7429ZM20.1146 17.9826C19.9199 18.1773 19.5805 18.178 19.3855 17.9826C19.3374 17.9349 19.2992 17.8781 19.2733 17.8155C19.2474 17.7528 19.2342 17.6857 19.2346 17.6179C19.2346 17.48 19.2876 17.3514 19.3855 17.2536C19.483 17.1561 19.6119 17.1026 19.7495 17.1026C19.8874 17.1026 20.0167 17.1561 20.1146 17.2536C20.2124 17.3514 20.2655 17.48 20.2655 17.6179C20.2655 17.7555 20.2124 17.8848 20.1146 17.9826Z" fill="white"/>
</svg>
