<svg width="26" height="26" viewBox="0 0 26 26" fill="none" xmlns="http://www.w3.org/2000/svg">
<path d="M24.5375 15.5892L13 23.9742L1.46247 15.5892C1.3078 15.4754 1.19307 15.3157 1.13469 15.1328C1.07632 14.9499 1.07729 14.7532 1.13747 14.5709L2.45914 10.4759L5.10247 2.34002C5.12811 2.27373 5.16892 2.21436 5.22164 2.16669C5.30748 2.08828 5.41954 2.0448 5.53581 2.0448C5.65207 2.0448 5.76413 2.08828 5.84997 2.16669C5.90564 2.22049 5.94665 2.28761 5.96914 2.36169L8.61247 10.4759H17.3875L20.0308 2.34002C20.0564 2.27373 20.0973 2.21436 20.15 2.16669C20.2358 2.08828 20.3479 2.0448 20.4641 2.0448C20.5804 2.0448 20.6925 2.08828 20.7783 2.16669C20.834 2.22049 20.875 2.28761 20.8975 2.36169L23.5408 10.4975L24.9166 14.5709C24.9714 14.7588 24.964 14.9594 24.8957 15.1428C24.8274 15.3263 24.7018 15.4828 24.5375 15.5892Z" stroke="white" stroke-width="2" stroke-linecap="round" stroke-linejoin="round"/>
</svg>
