<svg width="26" height="26" viewBox="0 0 26 26" fill="none" xmlns="http://www.w3.org/2000/svg">
<path d="M13 23.8334C18.9831 23.8334 23.8334 18.9831 23.8334 13C23.8334 7.01693 18.9831 2.16669 13 2.16669C7.01693 2.16669 2.16669 7.01693 2.16669 13C2.16669 18.9831 7.01693 23.8334 13 23.8334Z" stroke="white" stroke-width="2" stroke-linecap="round" stroke-linejoin="round"/>
<path d="M9.84747 9.75001C10.1022 9.02598 10.6049 8.41546 11.2666 8.02657C11.9283 7.63768 12.7063 7.49552 13.4627 7.62528C14.2192 7.75503 14.9054 8.14832 15.3996 8.7355C15.8939 9.32267 16.1645 10.0658 16.1633 10.8333C16.1633 13 12.9133 14.0833 12.9133 14.0833" stroke="white" stroke-width="2" stroke-linecap="round" stroke-linejoin="round"/>
<path d="M13 18.4167H13.01" stroke="white" stroke-width="2" stroke-linecap="round" stroke-linejoin="round"/>
</svg>
