<svg width="19" height="19" viewBox="0 0 19 19" fill="none" xmlns="http://www.w3.org/2000/svg">
<path d="M15.0417 8.70831H3.95833C3.08388 8.70831 2.375 9.4172 2.375 10.2916V15.8333C2.375 16.7078 3.08388 17.4166 3.95833 17.4166H15.0417C15.9161 17.4166 16.625 16.7078 16.625 15.8333V10.2916C16.625 9.4172 15.9161 8.70831 15.0417 8.70831Z" stroke="white" stroke-width="2" stroke-linecap="round" stroke-linejoin="round"/>
<path d="M5.54163 8.70831V5.54165C5.54163 4.49183 5.95866 3.48501 6.70099 2.74268C7.44333 2.00035 8.45014 1.58331 9.49996 1.58331C10.5498 1.58331 11.5566 2.00035 12.2989 2.74268C13.0413 3.48501 13.4583 4.49183 13.4583 5.54165V8.70831" stroke="white" stroke-width="2" stroke-linecap="round" stroke-linejoin="round"/>
</svg>
